<svg xmlns="http://www.w3.org/2000/svg" viewBox="0 0 27 29" width="27" height="29">
	<style>
		tspan { white-space:pre }
		.shp0 { fill: #79b260 } 
	</style>
	<g id="hdr">
		<g id="cart">
			<path id="Shape 9" class="shp0" d="M26.33 2.22C26.03 2.88 25.66 3.75 25.23 4.83C24.8 5.92 24.35 7.09 23.87 8.34C23.39 9.59 22.91 10.86 22.45 12.14C21.98 13.43 21.56 14.59 21.18 15.63C20.8 16.66 20.37 17.84 19.89 19.15C19.69 19.6 19.46 20.01 19.21 20.38C18.96 20.75 18.58 20.93 18.07 20.93L4.97 20.93C4.46 20.93 4.07 20.74 3.78 20.36C3.48 19.98 3.28 19.58 3.15 19.15L0.09 7.67C-0.04 7.17 0 6.74 0.22 6.39C0.43 6.03 0.99 5.86 1.9 5.86L21.21 5.86L23.49 0.93C23.71 0.45 24.03 0.16 24.44 0.06C24.84 -0.04 25.22 -0.01 25.57 0.16C25.92 0.32 26.2 0.59 26.39 0.95C26.57 1.32 26.56 1.74 26.33 2.22ZM9.29 26.27C9.29 27.03 9.02 27.67 8.49 28.2C7.96 28.73 7.32 29 6.56 29C5.78 29 5.12 28.73 4.59 28.2C4.06 27.67 3.8 27.03 3.8 26.27C3.8 25.51 4.06 24.86 4.59 24.32C5.12 23.78 5.78 23.5 6.56 23.5C7.32 23.5 7.96 23.78 8.49 24.32C9.02 24.86 9.29 25.51 9.29 26.27ZM18.79 26.27C18.79 27.03 18.53 27.67 18 28.2C17.47 28.73 16.82 29 16.07 29C15.28 29 14.62 28.73 14.1 28.2C13.57 27.67 13.3 27.03 13.3 26.27C13.3 25.51 13.57 24.86 14.1 24.32C14.62 23.78 15.28 23.5 16.07 23.5C16.82 23.5 17.47 23.78 18 24.32C18.53 24.86 18.79 25.51 18.79 26.27Z" />
		</g>
	</g>
</svg>