<svg xmlns="http://www.w3.org/2000/svg" viewBox="0 0 24 24" width="24" height="24">
	<style>
		tspan { white-space:pre }
		.shp0 { fill: #ffffff } 
	</style>
	<g id="hdr">
		<g id="search">
			<path id="Shape 7" class="shp0" d="M23.47 22.79L22.77 23.49C22.06 24.2 20.92 24.2 20.21 23.49L15.79 19.07C14.21 20.07 12.33 20.64 10.32 20.64C4.62 20.64 0 16.02 0 10.32C0 4.62 4.62 0 10.32 0C16.02 0 20.64 4.62 20.64 10.32C20.64 12.34 20.06 14.23 19.06 15.82L23.47 20.24C24.18 20.94 24.18 22.09 23.47 22.79ZM10.32 2.86C6.2 2.86 2.86 6.2 2.86 10.32C2.86 14.44 6.2 17.79 10.32 17.79C14.44 17.79 17.79 14.44 17.79 10.32C17.79 6.2 14.44 2.86 10.32 2.86Z" />
		</g>
	</g>
</svg>